<svg width="20" height="20" viewBox="0 0 20 20" fill="none" xmlns="http://www.w3.org/2000/svg">
<g id="arrow-up-right-from-square-outline">
<path id="Vector" d="M15.7778 11.3333V15.6293C15.7779 15.7656 15.7512 15.9005 15.6991 16.0264C15.647 16.1523 15.5706 16.2667 15.4743 16.3631C15.3779 16.4594 15.2635 16.5358 15.1376 16.5879C15.0117 16.64 14.8767 16.6668 14.7405 16.6667H4.37071C4.23445 16.6668 4.09951 16.64 3.9736 16.5879C3.84769 16.5358 3.73329 16.4594 3.63694 16.3631C3.54059 16.2667 3.46419 16.1523 3.4121 16.0264C3.36001 15.9005 3.33326 15.7656 3.33337 15.6293V5.25955C3.33326 5.12329 3.36001 4.98835 3.4121 4.86244C3.46419 4.73653 3.54059 4.62213 3.63694 4.52578C3.73329 4.42944 3.84769 4.35303 3.9736 4.30094C4.09951 4.24885 4.23445 4.2221 4.37071 4.22222H8.4756M11.5396 3.33333H16.6667V8.46044M9.65426 10.3458L16.568 3.43199" stroke="#1F2A37" stroke-width="2" stroke-linecap="round" stroke-linejoin="round"/>
</g>
</svg>
