<svg width="24" height="24" viewBox="0 0 24 24" fill="none" xmlns="http://www.w3.org/2000/svg">
<g id="cog-outline">
<g id="Vector">
<path d="M12.8995 21H11.0995C10.6221 21 10.1643 20.8104 9.82672 20.4728C9.48915 20.1352 9.29951 19.6774 9.29951 19.2V19.1199L8.87381 18.9399L8.81711 18.9966C8.47956 19.334 8.02181 19.5236 7.54451 19.5236C7.06722 19.5236 6.60946 19.334 6.27191 18.9966L4.99931 17.7276C4.66186 17.39 4.4723 16.9323 4.4723 16.455C4.4723 15.9777 4.66186 15.5199 4.99931 15.1824L5.05601 15.1257L4.87961 14.7H4.79951C4.32212 14.7 3.86428 14.5104 3.52672 14.1728C3.18915 13.8352 2.99951 13.3774 2.99951 12.9V11.1C2.99951 10.6226 3.18915 10.1648 3.52672 9.82721C3.86428 9.48964 4.32212 9.3 4.79951 9.3H4.87961L5.05961 8.8743L5.00291 8.8176C4.66546 8.48005 4.4759 8.0223 4.4759 7.545C4.4759 7.0677 4.66546 6.60995 5.00291 6.2724L6.27191 4.9998C6.60946 4.66235 7.06722 4.47278 7.54451 4.47278C8.02181 4.47278 8.47956 4.66235 8.81711 4.9998L8.87471 5.0574L9.29951 4.8801V4.8C9.29951 4.32261 9.48915 3.86477 9.82672 3.52721C10.1643 3.18964 10.6221 3 11.0995 3H12.8995C13.3769 3 13.8347 3.18964 14.1723 3.52721C14.5099 3.86477 14.6995 4.32261 14.6995 4.8V4.8801L15.1243 5.0601L15.1819 5.0034C15.5194 4.66623 15.977 4.47683 16.4541 4.47683C16.9311 4.47683 17.3887 4.66623 17.7262 5.0034L18.9997 6.2769C19.3372 6.61445 19.5267 7.0722 19.5267 7.5495C19.5267 8.0268 19.3372 8.48455 18.9997 8.8221L18.9421 8.8797L19.1221 9.3045H19.1995C19.6769 9.3045 20.1347 9.49414 20.4723 9.83171C20.8099 10.1693 20.9995 10.6271 20.9995 11.1045V12.9045C20.9995 13.3819 20.8099 13.8397 20.4723 14.1773C20.1347 14.5149 19.6769 14.7045 19.1995 14.7045H19.1194L18.9394 15.1293L18.9961 15.1869C19.3333 15.5244 19.5227 15.982 19.5227 16.4591C19.5227 16.9361 19.3333 17.3937 18.9961 17.7312L17.7226 19.0047C17.3851 19.3421 16.9273 19.5317 16.45 19.5317C15.9727 19.5317 15.515 19.3421 15.1774 19.0047L15.1207 18.948L14.695 19.128V19.2C14.695 19.6766 14.506 20.1338 14.1694 20.4712C13.8328 20.8086 13.3761 20.9988 12.8995 21ZM8.66321 16.9824C8.78119 16.9824 8.898 17.0057 9.00701 17.0508L10.5433 17.6871C10.7079 17.7551 10.8486 17.8705 10.9476 18.0185C11.0466 18.1665 11.0995 18.3406 11.0995 18.5187V19.2H12.8995V18.5187C12.8995 18.3406 12.9524 18.1665 13.0514 18.0185C13.1504 17.8705 13.2911 17.7551 13.4557 17.6871L14.992 17.0508C15.1563 16.9827 15.3371 16.9649 15.5115 16.9995C15.686 17.0341 15.8462 17.1196 15.9721 17.2452L16.4536 17.7267L17.7271 16.455L17.2456 15.9726C17.1199 15.8468 17.0342 15.6866 16.9994 15.5121C16.9647 15.3377 16.9824 15.1569 17.0503 14.9925L17.6866 13.4562C17.7546 13.2916 17.87 13.1509 18.018 13.0519C18.166 12.9529 18.3401 12.9 18.5182 12.9H19.1995V11.1H18.5182C18.3401 11.1 18.166 11.0471 18.018 10.9481C17.87 10.8491 17.7546 10.7084 17.6866 10.5438L17.0503 9.0075C16.9824 8.84312 16.9647 8.66229 16.9994 8.48785C17.0342 8.31341 17.1199 8.15318 17.2456 8.0274L17.7271 7.545L16.4545 6.2724L15.9721 6.7539C15.8463 6.87966 15.6861 6.96533 15.5117 7.00009C15.3372 7.03485 15.1564 7.01714 14.992 6.9492L13.4557 6.3129C13.2911 6.24487 13.1504 6.12954 13.0514 5.9815C12.9524 5.83347 12.8995 5.65939 12.8995 5.4813V4.8H11.0995V5.4813C11.0995 5.65939 11.0466 5.83347 10.9476 5.9815C10.8486 6.12954 10.7079 6.24487 10.5433 6.3129L9.00701 6.9492C8.84263 7.01714 8.6618 7.03485 8.48736 7.00009C8.31292 6.96533 8.1527 6.87966 8.02691 6.7539L7.54451 6.2724L6.27191 7.545L6.75431 8.0274C6.87992 8.15328 6.96542 8.31356 7.00002 8.48799C7.03462 8.66243 7.01676 8.8432 6.94871 9.0075L6.31241 10.5438C6.24438 10.7084 6.12905 10.8491 5.98102 10.9481C5.83298 11.0471 5.6589 11.1 5.48081 11.1H4.79951V12.9H5.48081C5.6589 12.9 5.83298 12.9529 5.98102 13.0519C6.12905 13.1509 6.24438 13.2916 6.31241 13.4562L6.94871 14.9925C7.01676 15.1568 7.03462 15.3376 7.00002 15.512C6.96542 15.6864 6.87992 15.8467 6.75431 15.9726L6.27281 16.4541L7.54451 17.7276L8.02691 17.2452C8.1958 17.0767 8.42467 16.9822 8.66321 16.9824Z" fill="#1F2A37"/>
<path d="M11.9995 15.6C11.2875 15.6 10.5915 15.3889 9.99946 14.9933C9.40744 14.5977 8.94602 14.0355 8.67354 13.3777C8.40107 12.7198 8.32978 11.996 8.46868 11.2977C8.60759 10.5993 8.95046 9.95788 9.45393 9.45442C9.9574 8.95095 10.5989 8.60808 11.2972 8.46917C11.9955 8.33027 12.7194 8.40156 13.3772 8.67403C14.035 8.94651 14.5972 9.40793 14.9928 9.99995C15.3884 10.592 15.5995 11.288 15.5995 12C15.5995 12.9548 15.2202 13.8705 14.5451 14.5456C13.87 15.2207 12.9543 15.6 11.9995 15.6ZM11.9995 10.2C11.6435 10.2 11.2955 10.3056 10.9995 10.5034C10.7035 10.7011 10.4728 10.9823 10.3365 11.3112C10.2003 11.6401 10.1646 12.002 10.2341 12.3512C10.3036 12.7003 10.475 13.0211 10.7267 13.2728C10.9785 13.5245 11.2992 13.696 11.6483 13.7654C11.9975 13.8349 12.3594 13.7992 12.6883 13.663C13.0172 13.5267 13.2984 13.296 13.4962 13C13.6939 12.704 13.7995 12.356 13.7995 12C13.7995 11.5226 13.6099 11.0648 13.2723 10.7272C12.9347 10.3896 12.4769 10.2 11.9995 10.2Z" fill="#1F2A37"/>
</g>
</g>
</svg>
